<?xml version="1.0" encoding="utf-8"?>
<!-- Generator: Adobe Illustrator 16.0.0, SVG Export Plug-In . SVG Version: 6.00 Build 0)  -->
<!DOCTYPE svg PUBLIC "-//W3C//DTD SVG 1.1//EN" "http://www.w3.org/Graphics/SVG/1.1/DTD/svg11.dtd">
<svg version="1.1" xmlns="http://www.w3.org/2000/svg" xmlns:xlink="http://www.w3.org/1999/xlink" x="0px" y="0px" width="1200px"
	 height="1136px" viewBox="0 0 1200 1136" enable-background="new 0 0 1200 1136" xml:space="preserve">
<g id="Layer_1" display="none">
</g>
<g id="Layer_2">
	<polygon points="46.999,864.334 67.666,864.334 340,195.001 320.333,195.001 	"/>
</g>
<g id="Layer_3">
	<path fill="#F58500" d="M331.667,195h12L600,847c0,0,211.666,5.334,250.333-9.333L867.667,855c0,0-28.667,6.667-52.667,6.667
		c0,0-60,7.334-228,2.667L329.667,209.667v-14.666"/>
</g>
<g id="Layer_4">
	<path d="M584.083,195.5v20.665h196.667c0,0,110.666,2.667,161.333,37.333c0,0,76.002,32.667,114.002,112
		c0,0,32,42.667,35.333,144.667c0,0,8.666,75.333-22.667,156.667c0,0-24,68.001-85.333,114.667c0,0-37.417,33-134.667,56.666
		l15.801,17.516c0,0,93.782-24.181,129.533-57.516c0,0,55.332-32.667,92.666-122c0,0,29.334-64,24.667-170
		c0,0-0.668-79.333-31.668-139.333c0,0-28.667-64.334-76-97.667c0,0-41.332-33.667-108.666-55.667c0,0-46.335-14.999-123.001-18
		H584.083z"/>
</g>
</svg>
